<svg width="62" height="35" viewBox="0 0 62 35" fill="none" xmlns="http://www.w3.org/2000/svg">
<path d="M0 33.74V19.3H2.56V33.74H0Z" fill="black"/>
<path d="M11.0809 29.32L9.38094 29.4C8.4476 29.44 7.80094 29.5933 7.44094 29.86C7.09427 30.1133 6.92094 30.4133 6.92094 30.76C6.92094 31.12 7.0676 31.4067 7.36094 31.62C7.65427 31.8333 8.04094 31.94 8.52094 31.94C9.2676 31.94 9.88094 31.7067 10.3609 31.24C10.8409 30.76 11.0809 30.1267 11.0809 29.34V29.32ZM11.0809 33.74V32.36C10.3609 33.4667 9.27427 34.02 7.82094 34.02C7.27427 34.02 6.7876 33.94 6.36094 33.78C5.93427 33.62 5.57427 33.4 5.28094 33.12C5.00094 32.84 4.78094 32.5133 4.62094 32.14C4.47427 31.7667 4.40094 31.3667 4.40094 30.94C4.40094 29.9533 4.78094 29.1667 5.54094 28.58C6.30094 27.98 7.43427 27.6533 8.94094 27.6L11.0809 27.52V27.44C11.0809 26.88 10.8943 26.4267 10.5209 26.08C10.1609 25.72 9.65427 25.54 9.00094 25.54C7.9076 25.54 7.13427 26.0267 6.68094 27L4.68094 26C5.05427 25.2 5.6076 24.58 6.34094 24.14C7.07427 23.6867 7.9876 23.46 9.08094 23.46C10.4943 23.46 11.5943 23.8267 12.3809 24.56C13.1676 25.2933 13.5609 26.3 13.5609 27.58V33.74H11.0809Z" fill="black"/>
<path d="M21.197 31.62C21.5837 31.62 21.937 31.5467 22.257 31.4C22.5904 31.2533 22.877 31.0533 23.117 30.8C23.357 30.5467 23.5437 30.24 23.677 29.88C23.8104 29.52 23.877 29.1333 23.877 28.72C23.877 28.2933 23.8104 27.9067 23.677 27.56C23.5437 27.2133 23.357 26.9133 23.117 26.66C22.877 26.4067 22.5904 26.2133 22.257 26.08C21.937 25.9333 21.5837 25.86 21.197 25.86C20.8104 25.86 20.4504 25.9333 20.117 26.08C19.797 26.2133 19.517 26.4067 19.277 26.66C19.037 26.9133 18.8504 27.2133 18.717 27.56C18.5837 27.9067 18.517 28.2933 18.517 28.72C18.517 29.1333 18.5837 29.52 18.717 29.88C18.8504 30.24 19.037 30.5467 19.277 30.8C19.517 31.0533 19.797 31.2533 20.117 31.4C20.4504 31.5467 20.8104 31.62 21.197 31.62ZM21.897 34.02C21.137 34.02 20.4704 33.86 19.897 33.54C19.337 33.2067 18.877 32.76 18.517 32.2V33.74H15.957V19.3H18.517V25.28C18.877 24.72 19.337 24.28 19.897 23.96C20.4704 23.6267 21.137 23.46 21.897 23.46C22.577 23.46 23.197 23.5933 23.757 23.86C24.3304 24.1267 24.817 24.5 25.217 24.98C25.6304 25.4467 25.9504 26 26.177 26.64C26.4037 27.28 26.517 27.98 26.517 28.74C26.517 29.5 26.4037 30.2 26.177 30.84C25.9504 31.48 25.6304 32.04 25.217 32.52C24.817 32.9867 24.3304 33.3533 23.757 33.62C23.197 33.8867 22.577 34.02 21.897 34.02Z" fill="black"/>
<path d="M33.2775 34.02C32.5042 34.02 31.7908 33.8867 31.1375 33.62C30.4842 33.3533 29.9175 32.9867 29.4375 32.52C28.9708 32.0533 28.6042 31.5 28.3375 30.86C28.0842 30.2067 27.9575 29.5 27.9575 28.74C27.9575 27.98 28.0842 27.28 28.3375 26.64C28.6042 25.9867 28.9708 25.4267 29.4375 24.96C29.9175 24.4933 30.4842 24.1267 31.1375 23.86C31.7908 23.5933 32.5042 23.46 33.2775 23.46C34.0642 23.46 34.7775 23.5933 35.4175 23.86C36.0708 24.1267 36.6308 24.4933 37.0975 24.96C37.5775 25.4267 37.9442 25.9867 38.1975 26.64C38.4642 27.28 38.5975 27.98 38.5975 28.74C38.5975 29.5 38.4642 30.2067 38.1975 30.86C37.9442 31.5 37.5775 32.0533 37.0975 32.52C36.6308 32.9867 36.0708 33.3533 35.4175 33.62C34.7775 33.8867 34.0642 34.02 33.2775 34.02ZM33.2775 31.62C33.6642 31.62 34.0175 31.5533 34.3375 31.42C34.6708 31.2733 34.9575 31.0733 35.1975 30.82C35.4375 30.5533 35.6242 30.2467 35.7575 29.9C35.8908 29.54 35.9575 29.1533 35.9575 28.74C35.9575 28.3133 35.8908 27.9267 35.7575 27.58C35.6242 27.2333 35.4375 26.9333 35.1975 26.68C34.9575 26.4133 34.6708 26.2133 34.3375 26.08C34.0175 25.9333 33.6642 25.86 33.2775 25.86C32.8908 25.86 32.5308 25.9333 32.1975 26.08C31.8775 26.2133 31.5975 26.4133 31.3575 26.68C31.1175 26.9333 30.9308 27.2333 30.7975 27.58C30.6642 27.9267 30.5975 28.3133 30.5975 28.74C30.5975 29.1533 30.6642 29.54 30.7975 29.9C30.9308 30.2467 31.1175 30.5533 31.3575 30.82C31.5975 31.0733 31.8775 31.2733 32.1975 31.42C32.5308 31.5533 32.8908 31.62 33.2775 31.62Z" fill="black"/>
<path d="M46.4278 23.62V25.94H45.8478C45.4211 25.94 45.0345 25.9867 44.6878 26.08C44.3545 26.1733 44.0678 26.3333 43.8278 26.56C43.5878 26.7867 43.4011 27.0867 43.2678 27.46C43.1345 27.82 43.0678 28.28 43.0678 28.84V33.74H40.5078V23.74H43.0678V25.24C43.6145 24.16 44.5211 23.62 45.7878 23.62H46.4278Z" fill="black"/>
<path d="M54.1473 29.32L52.4473 29.4C51.514 29.44 50.8673 29.5933 50.5073 29.86C50.1607 30.1133 49.9873 30.4133 49.9873 30.76C49.9873 31.12 50.134 31.4067 50.4273 31.62C50.7207 31.8333 51.1073 31.94 51.5873 31.94C52.334 31.94 52.9473 31.7067 53.4273 31.24C53.9073 30.76 54.1473 30.1267 54.1473 29.34V29.32ZM54.1473 33.74V32.36C53.4273 33.4667 52.3407 34.02 50.8873 34.02C50.3407 34.02 49.854 33.94 49.4273 33.78C49.0007 33.62 48.6407 33.4 48.3473 33.12C48.0673 32.84 47.8473 32.5133 47.6873 32.14C47.5407 31.7667 47.4673 31.3667 47.4673 30.94C47.4673 29.9533 47.8473 29.1667 48.6073 28.58C49.3673 27.98 50.5007 27.6533 52.0073 27.6L54.1473 27.52V27.44C54.1473 26.88 53.9607 26.4267 53.5873 26.08C53.2273 25.72 52.7207 25.54 52.0673 25.54C50.974 25.54 50.2007 26.0267 49.7473 27L47.7473 26C48.1207 25.2 48.674 24.58 49.4073 24.14C50.1407 23.6867 51.054 23.46 52.1473 23.46C53.5607 23.46 54.6607 23.8267 55.4473 24.56C56.234 25.2933 56.6273 26.3 56.6273 27.58V33.74H54.1473Z" fill="black"/>
<path d="M59.0234 33.74V19.3H61.5834V33.74H59.0234Z" fill="black"/>
<path d="M5.84002 15.02C5.06669 15.02 4.35335 14.8933 3.70002 14.64C3.04669 14.3733 2.48669 14.0067 2.02002 13.54C1.55335 13.0733 1.18669 12.52 0.92002 11.88C0.653353 11.2267 0.52002 10.5133 0.52002 9.74C0.52002 8.96667 0.653353 8.26 0.92002 7.62C1.18669 6.96667 1.55335 6.40667 2.02002 5.94C2.48669 5.47333 3.04669 5.11333 3.70002 4.86C4.35335 4.59333 5.06669 4.46 5.84002 4.46C6.94669 4.46 7.90669 4.72 8.72002 5.24C9.53335 5.76 10.1334 6.48667 10.52 7.42L8.26002 8.54C8.03335 7.99333 7.71335 7.58 7.30002 7.3C6.88669 7.00667 6.40002 6.86 5.84002 6.86C5.44002 6.86 5.07335 6.93333 4.74002 7.08C4.42002 7.21333 4.14002 7.41333 3.90002 7.68C3.67335 7.93333 3.49335 8.23333 3.36002 8.58C3.22669 8.92667 3.16002 9.31333 3.16002 9.74C3.16002 10.1533 3.22669 10.54 3.36002 10.9C3.49335 11.2467 3.67335 11.5533 3.90002 11.82C4.14002 12.0733 4.42002 12.2733 4.74002 12.42C5.07335 12.5533 5.44002 12.62 5.84002 12.62C6.40002 12.62 6.88669 12.48 7.30002 12.2C7.71335 11.9067 8.03335 11.4867 8.26002 10.94L10.52 12.06C10.1334 12.9933 9.53335 13.72 8.72002 14.24C7.90669 14.76 6.94669 15.02 5.84002 15.02Z" fill="black"/>
<path d="M12.3281 14.74V0.3H14.8881V14.74H12.3281Z" fill="black"/>
<path d="M17.2891 4.74H19.8491V14.74H17.2891V4.74ZM17.0491 1.52C17.0491 1.08 17.1957 0.720001 17.4891 0.44C17.7957 0.146667 18.1624 0 18.5891 0C19.0157 0 19.3691 0.146667 19.6491 0.44C19.9424 0.720001 20.0891 1.08 20.0891 1.52C20.0891 1.96 19.9424 2.32667 19.6491 2.62C19.3691 2.9 19.0157 3.04 18.5891 3.04C18.1624 3.04 17.7957 2.9 17.4891 2.62C17.1957 2.32667 17.0491 1.96 17.0491 1.52Z" fill="black"/>
<path d="M22.25 14.74V4.74H24.81V6C25.4234 4.97333 26.3367 4.46 27.55 4.46C28.2167 4.46 28.7967 4.61333 29.29 4.92C29.7834 5.22667 30.1634 5.65333 30.43 6.2C30.7234 5.64 31.1234 5.21333 31.63 4.92C32.1367 4.61333 32.73 4.46 33.41 4.46C33.9567 4.46 34.45 4.55333 34.89 4.74C35.33 4.92667 35.7034 5.18667 36.01 5.52C36.33 5.85333 36.5767 6.26 36.75 6.74C36.9234 7.20667 37.01 7.72 37.01 8.28V14.74H34.45V8.88C34.45 8.22667 34.3034 7.72 34.01 7.36C33.7167 7 33.2967 6.82 32.75 6.82C32.19 6.82 31.7434 7.00667 31.41 7.38C31.0767 7.74 30.91 8.24 30.91 8.88V14.74H28.35V8.88C28.35 8.22667 28.2034 7.72 27.91 7.36C27.6167 7 27.1967 6.82 26.65 6.82C26.09 6.82 25.6434 7.00667 25.31 7.38C24.9767 7.74 24.81 8.24 24.81 8.88V14.74H22.25Z" fill="black"/>
<path d="M45.4989 10.32L43.7989 10.4C42.8656 10.44 42.2189 10.5933 41.8589 10.86C41.5123 11.1133 41.3389 11.4133 41.3389 11.76C41.3389 12.12 41.4856 12.4067 41.7789 12.62C42.0723 12.8333 42.4589 12.94 42.9389 12.94C43.6856 12.94 44.2989 12.7067 44.7789 12.24C45.2589 11.76 45.4989 11.1267 45.4989 10.34V10.32ZM45.4989 14.74V13.36C44.7789 14.4667 43.6923 15.02 42.2389 15.02C41.6923 15.02 41.2056 14.94 40.7789 14.78C40.3523 14.62 39.9923 14.4 39.6989 14.12C39.4189 13.84 39.1989 13.5133 39.0389 13.14C38.8923 12.7667 38.8189 12.3667 38.8189 11.94C38.8189 10.9533 39.1989 10.1667 39.9589 9.58C40.7189 8.98 41.8523 8.65333 43.3589 8.6L45.4989 8.52V8.44C45.4989 7.88 45.3123 7.42667 44.9389 7.08C44.5789 6.72 44.0723 6.54 43.4189 6.54C42.3256 6.54 41.5523 7.02667 41.0989 8L39.0989 7C39.4723 6.2 40.0256 5.58 40.7589 5.14C41.4923 4.68667 42.4056 4.46 43.4989 4.46C44.9123 4.46 46.0123 4.82667 46.7989 5.56C47.5856 6.29333 47.9789 7.3 47.9789 8.58V14.74H45.4989Z" fill="black"/>
</svg>
