<svg width="124" height="52" viewBox="0 0 124 52" fill="none" xmlns="http://www.w3.org/2000/svg">
<path d="M26 0C19.1044 0 12.4912 2.73928 7.61522 7.61522C2.73928 12.4912 5.20606e-07 19.1044 0 26C-5.20605e-07 32.8956 2.73928 39.5088 7.61522 44.3848C12.4912 49.2607 19.1044 52 26 52L26 41.6952C21.8374 41.6952 17.8453 40.0416 14.9018 37.0982C11.9584 34.1547 10.3048 30.1626 10.3048 26C10.3048 21.8374 11.9584 17.8453 14.9018 14.9018C17.8453 11.9584 21.8374 10.3048 26 10.3048L26 0Z" fill="#F00000"/>
<path d="M32.5 52V0H41.2853V52H32.5Z" fill="black"/>
<path d="M70.5271 35.3967L64.6931 35.6793C61.4901 35.8207 59.2709 36.3623 58.0355 37.3043C56.8458 38.1993 56.251 39.2591 56.251 40.4837C56.251 41.7554 56.7543 42.7681 57.7609 43.5217C58.7676 44.2754 60.0945 44.6522 61.7418 44.6522C64.3042 44.6522 66.409 43.8279 68.0562 42.1793C69.7035 40.4837 70.5271 38.2464 70.5271 35.4674V35.3967ZM70.5271 52V46.1359C68.0562 50.0453 64.327 52 59.3396 52C57.4635 52 55.7934 51.7174 54.3292 51.1522C52.865 50.587 51.6295 49.8098 50.6229 48.8207C49.662 47.8315 48.907 46.6775 48.3579 45.3587C47.8546 44.0399 47.6029 42.6268 47.6029 41.1196C47.6029 37.6341 48.907 34.8551 51.5151 32.7826C54.1233 30.663 58.0126 29.5091 63.1831 29.3207L70.5271 29.038V28.7554C70.5271 26.7772 69.8865 25.1757 68.6053 23.9511C67.3699 22.6793 65.6311 22.0435 63.389 22.0435C59.637 22.0435 56.9831 23.7627 55.4273 27.2011L48.5638 23.6685C49.845 20.8424 51.7439 18.6522 54.2606 17.0978C56.7772 15.4964 59.9115 14.6957 63.6636 14.6957C68.5138 14.6957 72.2887 15.9909 74.9884 18.5815C77.688 21.1721 79.0378 24.7283 79.0378 29.25V52H70.5271Z" fill="black"/>
<path d="M105.243 43.5217C106.57 43.5217 107.783 43.2627 108.881 42.7446C110.025 42.2264 111.008 41.5199 111.832 40.625C112.656 39.7301 113.296 38.6467 113.754 37.375C114.211 36.1033 114.44 34.7373 114.44 33.2772C114.44 31.7699 114.211 30.404 113.754 29.1793C113.296 27.9547 112.656 26.8949 111.832 26C111.008 25.1051 110.025 24.4221 108.881 23.9511C107.783 23.433 106.57 23.1739 105.243 23.1739C103.916 23.1739 102.681 23.433 101.537 23.9511C100.439 24.4221 99.4777 25.1051 98.6541 26C97.8305 26.8949 97.1899 27.9547 96.7323 29.1793C96.2747 30.404 96.0459 31.7699 96.0459 33.2772C96.0459 34.7373 96.2747 36.1033 96.7323 37.375C97.1899 38.6467 97.8305 39.7301 98.6541 40.625C99.4777 41.5199 100.439 42.2264 101.537 42.7446C102.681 43.2627 103.916 43.5217 105.243 43.5217ZM107.645 52C105.037 52 102.749 51.4348 100.782 50.3043C98.86 49.1268 97.2814 47.5489 96.0459 45.5707V52H87.2606V0H96.0459V21.125C97.2814 19.1467 98.86 17.5924 100.782 16.462C102.749 15.2844 105.037 14.6957 107.645 14.6957C109.979 14.6957 112.107 15.1667 114.028 16.1087C115.996 17.0507 117.666 18.3696 119.039 20.0652C120.457 21.7138 121.555 23.6685 122.333 25.9293C123.111 28.1902 123.5 30.663 123.5 33.3478C123.5 36.0326 123.111 38.5054 122.333 40.7663C121.555 43.0272 120.457 45.0054 119.039 46.7011C117.666 48.3496 115.996 49.6449 114.028 50.587C112.107 51.529 109.979 52 107.645 52Z" fill="black"/>
</svg>
